<svg xmlns="http://www.w3.org/2000/svg" xmlns:xlink="http://www.w3.org/1999/xlink" width="100" height="32.497" viewBox="0 0 100 32.497"><defs><style>.a{fill:none;}.b{fill:#fff;}.c{fill:url(#a);}</style><linearGradient id="a" x1="-0.014" y1="0.679" x2="0.983" y2="0.432" gradientUnits="objectBoundingBox"><stop offset="0" stop-color="#fff"/><stop offset="0.068" stop-color="#fbfcff"/><stop offset="0.134" stop-color="#eff6ff"/><stop offset="0.198" stop-color="#dcebff"/><stop offset="0.263" stop-color="#c0dbff"/><stop offset="0.326" stop-color="#9dc7ff"/><stop offset="0.39" stop-color="#72aeff"/><stop offset="0.453" stop-color="#3f91ff"/><stop offset="0.515" stop-color="#0570ff"/><stop offset="0.52" stop-color="#006dff"/><stop offset="0.611" stop-color="#175bf4"/><stop offset="0.801" stop-color="#512dd9"/><stop offset="0.976" stop-color="#8d00bf"/></linearGradient></defs><g transform="translate(1310.4 -3705.245)"><g transform="translate(-1309.591 3706.054)"><g transform="translate(0 0)"><path class="a" d="M-1241.35,3785.261v-5.052c-.244,0-.481.011-.707.022,0,.068.006.13.006.189a3.729,3.729,0,0,1-1.215,2.714,3.826,3.826,0,0,1-2.532,1.086h0l-.128,0a1.838,1.838,0,0,1-1.91-1.693,1.834,1.834,0,0,1,.585-1.279,3.215,3.215,0,0,1,.475-.393.441.441,0,0,1-.062,0,.587.587,0,0,1-.537-.375,10.038,10.038,0,0,1-.431-3.09c0-.329.014-.631.041-.9a2.355,2.355,0,0,1-1.5.553h-.021c0,.27,0,.54,0,.809v7.41l1.72,1.72.85.85c.046.046.095.091.139.138a.369.369,0,0,1,.079.289v6.274h2.229c0-.51,0-1.019,0-1.529v-4.213c0-.164-.01-.332,0-.5a.415.415,0,0,1,.168-.281l.31-.31,1.006-1.005Z" transform="translate(1255.751 -3768.824)"/><path class="a" d="M-1231.742,3811.061a1.233,1.233,0,0,0,1.316,1.1h.039a2.634,2.634,0,0,0,2.32-2.647,2.207,2.207,0,0,0-.072-.562,8.189,8.189,0,0,0-1.6.381,3.964,3.964,0,0,0-1.571.847A1.255,1.255,0,0,0-1231.742,3811.061Z" transform="translate(1240.287 -3797.428)"/><path class="a" d="M-1224.736,3767.97a8.8,8.8,0,0,0,1.039-3.056.461.461,0,0,0-.021-.164h0l-.006,0c-.552.159-1.031,1.074-1.385,2.647a20.99,20.99,0,0,0-.4,2.706l0,.02a.251.251,0,0,1-.048.144.4.4,0,0,1-.027.049,6.044,6.044,0,0,1,1.085-.466,8.377,8.377,0,0,1,1.543-.381,1.389,1.389,0,0,0-1-.791.5.5,0,0,0-.221.054.628.628,0,0,1-.313.086.438.438,0,0,1-.479-.409A.628.628,0,0,1-1224.736,3767.97Z" transform="translate(1234.868 -3758.483)"/><path class="a" d="M-1293.168,3712.047a10.441,10.441,0,0,0-10.429,10.429,10.334,10.334,0,0,0,2.165,6.364l.017.024a7.422,7.422,0,0,0,.961,1.093,11.194,11.194,0,0,1,2.6,3.657,11.134,11.134,0,0,1,.951,4.143h2.009c0-.143,0-.287,0-.429V3731.5l-.855-.855-1.245-1.245-.449-.45c-.1-.1-.232-.2-.24-.351s0-.318,0-.476v-8.107a.273.273,0,0,1,.25-.268.28.28,0,0,1,.131-.032h.017c.058,0,.113.007.163.007a2.187,2.187,0,0,0,1.75-1.132.85.85,0,0,1,.732-.352c.385,0,.644.207.644.515a.665.665,0,0,1-.014.131v0c-.064.282-.221,1.019-.325,1.856a12.458,12.458,0,0,1,.35-1.2c.478-1.354,1.078-2.041,1.783-2.041a1.042,1.042,0,0,1,.233.022c.528.109.831.6.831,1.355a3.918,3.918,0,0,1-.359,1.549,4.3,4.3,0,0,1-.666,1.056c.035,0,.07,0,.1,0a2.07,2.07,0,0,1,1.282.439,2.394,2.394,0,0,1,.734.979c.288-.013.608-.023,1-.031h0a.28.28,0,0,1,.159.049.277.277,0,0,1,.224.266c0,.01,0,.019,0,.028.009.592,0,1.185,0,1.777v3.47c0,.044,0,.089,0,.134a.385.385,0,0,1-.152.264l-1.6,1.6-1.169,1.168c.009.237,0,.479,0,.715v5.417h2.162a11.132,11.132,0,0,1,.951-4.143,11.2,11.2,0,0,1,2.6-3.657,6.774,6.774,0,0,0,.94-1.085l.022-.031a10.333,10.333,0,0,0,2.166-6.364A10.441,10.441,0,0,0-1293.168,3712.047Z" transform="translate(1303.597 -3712.047)"/></g></g><path class="b" d="M-1264.518,3885.178" transform="translate(-40.426 -158.535)"/><g transform="translate(-1303.563 3733.531)"><path class="b" d="M-1252.912,3943.1v1.264a.918.918,0,0,0,.918.917h6.875a.917.917,0,0,0,.917-.917V3943.1Z" transform="translate(1252.912 -3943.098)"/><path class="b" d="M-1244.8,3970.416h4.858a1.091,1.091,0,0,0,1.091-1.091h-7.04A1.091,1.091,0,0,0-1244.8,3970.416Z" transform="translate(1246.724 -3966.205)"/></g><g transform="translate(-1285.12 3710.887)"><path class="a" d="M-1059.5,3808.656h-2.417v4.941h2.417a2.72,2.72,0,0,0,2.048-.656,2.715,2.715,0,0,0,.618-1.93,2.352,2.352,0,0,0-.618-1.736A2.819,2.819,0,0,0-1059.5,3808.656Z" transform="translate(1066.189 -3802)"/><path class="a" d="M-839.774,3820.358h4.518l-2.241-6.212Z" transform="translate(870.463 -3806.837)"/><path class="a" d="M-573.281,3779.255a3.307,3.307,0,0,0-2.376-1.9,1.183,1.183,0,0,0-.531.13,1.443,1.443,0,0,1-.719.2,1,1,0,0,1-1.092-.928,1.442,1.442,0,0,1,.541-1.013l0,0a13.148,13.148,0,0,0,1.4-3.06,14.892,14.892,0,0,0,1.034-4.111.954.954,0,0,0-.06-.416.164.164,0,0,0-.03.007l-.014,0a3.666,3.666,0,0,0-1.936,2.125,19.283,19.283,0,0,0-1.326,4.091,49.176,49.176,0,0,0-.945,6.337l0,.047a.56.56,0,0,1-.109.324.914.914,0,0,1-.14.221,13.912,13.912,0,0,1,2.65-1.156A19.56,19.56,0,0,1-573.281,3779.255Z" transform="translate(641.211 -3766.312)"/><path class="a" d="M-588.653,3872.513a9.317,9.317,0,0,0-3.687,1.99,2.966,2.966,0,0,0-1.017,2.081,2.913,2.913,0,0,0,3.109,2.6h.091a5.155,5.155,0,0,0,3.8-1.935,6.691,6.691,0,0,0,1.662-4.29,5.162,5.162,0,0,0-.175-1.347A19.152,19.152,0,0,0-588.653,3872.513Z" transform="translate(653.35 -3857.473)"/><path class="b" d="M-1087.161,3796.953a4.268,4.268,0,0,0-1.6-.6,11.811,11.811,0,0,0-2.068-.168h-7v1.042q1.57,0,1.57.813v9.438q0,.814-1.57.814v1.005h6.229v-1.005q-1.959,0-1.959-.816v-3.419h2.724a10.177,10.177,0,0,0,2.07-.195,4.223,4.223,0,0,0,1.6-.662,3.085,3.085,0,0,0,1.026-1.244,4.59,4.59,0,0,0,.363-1.942,4.285,4.285,0,0,0-.363-1.888A2.879,2.879,0,0,0-1087.161,3796.953Zm-1.929,5a2.72,2.72,0,0,1-2.048.656h-2.417v-4.941h2.417a2.821,2.821,0,0,1,2.048.619,2.352,2.352,0,0,1,.618,1.736A2.714,2.714,0,0,1-1089.09,3801.953Z" transform="translate(1097.826 -3791.012)"/><path class="b" d="M-975.318,3805.962a3.213,3.213,0,0,1-.626,1.156,2.2,2.2,0,0,1-.918.618,3.626,3.626,0,0,1-1.2.186h-3.459v-9.882q0-.812,1.959-.812v-1.042h-6.229v1.042q1.57,0,1.57.813v9.438q0,.814-1.57.814v1.005h11.541l.424-5.029-1.165-.124A7.977,7.977,0,0,1-975.318,3805.962Z" transform="translate(999.115 -3791.012)"/><path class="b" d="M-861.44,3807.744l-4.253-11.559h-2.559l-4.412,11.577a.652.652,0,0,1-.44.371,3.586,3.586,0,0,1-1.094.123v1.041h4.818v-1.024h-1.094q-.777,0-.776-.458a.651.651,0,0,1,.035-.212l.653-1.765h5.417l.707,1.905a.721.721,0,0,1,.053.195c0,.224-.17.335-.512.335h-1.553v1.024h6.459v-1.024Q-861.263,3808.273-861.44,3807.744Zm-8.665-3.211,2.277-6.212,2.241,6.212Z" transform="translate(900.793 -3791.012)"/><path class="c" d="M-711.781,3765.249h-.007c-.918.017-1.673.041-2.351.073a5.56,5.56,0,0,0-1.716-2.3,4.817,4.817,0,0,0-2.983-1.023c-.1,0-.206,0-.311.01a9.995,9.995,0,0,0,1.6-2.516,9.141,9.141,0,0,0,.838-3.614c0-1.745-.7-2.89-1.923-3.144a2.418,2.418,0,0,0-.539-.051c-1.638,0-3.033,1.6-4.148,4.758a30.224,30.224,0,0,0-.93,3.281,45.989,45.989,0,0,1,.818-4.835l0-.009a1.55,1.55,0,0,0,.033-.3,1.07,1.07,0,0,0-.5-.917,1.781,1.781,0,0,0-.98-.261,1.963,1.963,0,0,0-1.688.809,5.279,5.279,0,0,1-3.783,2.65h-.682l-.037,0h-.039l-.062,0h-2.679v1.042q1.571,0,1.57.812v8.982l-6.758-10.836h-4.73v1.042q1.571,0,1.571.813v9.438q0,.814-1.571.813v1.006h4.606v-1.006q-1.571,0-1.57-.812V3760.4l6.652,10.571h3.265v-11.259a.663.663,0,0,1,.436-.63,5.167,5.167,0,0,0,1.1-.182h.036v-.01a5.851,5.851,0,0,0,2.1-1.131,21.164,21.164,0,0,0-.1,2.179,23.467,23.467,0,0,0,1.008,7.223,1.346,1.346,0,0,0,1.23.857,1.1,1.1,0,0,0,.278-.035,7.627,7.627,0,0,0-1.223.994,4.262,4.262,0,0,0-1.361,2.973,3.622,3.622,0,0,0,1.275,2.72,5.127,5.127,0,0,0,3.17,1.215l.3.009h.01a7.928,7.928,0,0,0,3.1-.677,9.753,9.753,0,0,0,2.8-1.856,9.284,9.284,0,0,0,2.043-2.805,8.254,8.254,0,0,0,.793-3.525c0-.147-.005-.3-.016-.47.654-.031,1.347-.051,2.063-.058a.623.623,0,0,0,.616-.626A.619.619,0,0,0-711.781,3765.249Zm-12.322,2.21a.559.559,0,0,0,.109-.323c0-.012,0-.028,0-.047a49.189,49.189,0,0,1,.945-6.337,19.277,19.277,0,0,1,1.326-4.091c.588-1.209,1.239-1.924,1.936-2.125l.014,0a.184.184,0,0,1,.03-.007.956.956,0,0,1,.06.416,14.892,14.892,0,0,1-1.034,4.111,13.129,13.129,0,0,1-1.4,3.06l0,0a1.442,1.442,0,0,0-.541,1.013,1,1,0,0,0,1.092.928,1.441,1.441,0,0,0,.719-.2,1.189,1.189,0,0,1,.531-.13,3.308,3.308,0,0,1,2.376,1.9,19.541,19.541,0,0,0-3.648.9,13.864,13.864,0,0,0-2.65,1.156A.915.915,0,0,0-724.1,3767.459Zm5.217,5.006a5.155,5.155,0,0,1-3.8,1.935h-.091a2.914,2.914,0,0,1-3.109-2.605,2.965,2.965,0,0,1,1.017-2.08,9.315,9.315,0,0,1,3.687-1.99,19.166,19.166,0,0,1,3.778-.9,5.168,5.168,0,0,1,.175,1.347A6.69,6.69,0,0,1-718.886,3772.465Z" transform="translate(785.875 -3752.685)"/></g><g transform="translate(-1285.12 3730.766)"><path class="b" d="M-1094.547,3924.808c0-.611-.366-.883-1.184-1.2l-.357-.141c-.958-.376-1.616-.921-1.616-1.879,0-1.08.911-1.738,2.1-1.738a2.488,2.488,0,0,1,1.531.5l-.057,1.221h-.564l-.263-1.419.6.31v.469a1.7,1.7,0,0,0-1.306-.611c-.733,0-1.287.366-1.287,1.071,0,.592.385.94,1.071,1.2l.367.141c1.24.479,1.719,1.024,1.719,1.907,0,1.109-.93,1.785-2.218,1.785a3.6,3.6,0,0,1-1.823-.5l.056-1.315h.564l.244,1.447-.611-.263v-.451a2.286,2.286,0,0,0,1.541.611C-1095.139,3925.954-1094.547,3925.541-1094.547,3924.808Z" transform="translate(1097.826 -3919.847)"/><path class="b" d="M-1051.159,3923.135a3.029,3.029,0,0,1-2.866,3.289,2.986,2.986,0,0,1-2.875-3.289,3.042,3.042,0,0,1,2.875-3.288A2.984,2.984,0,0,1-1051.159,3923.135Zm-2.866,2.819c1.325,0,1.879-1.409,1.879-2.819s-.554-2.819-1.879-2.819-1.888,1.409-1.888,2.819S-1055.35,3925.954-1054.025,3925.954Z" transform="translate(1061.767 -3919.847)"/><path class="b" d="M-1003.255,3921.407v-.376h2.631v.376l-1.221.141h-.188Zm1.315,5.4v.517h-1.315v-.376l1.221-.141Zm-.451-5.778h.9c-.028.968-.028,1.945-.028,2.913v.657c0,.8,0,1.776.028,2.725h-.9c.028-.968.028-1.945.028-2.913v-.47C-1002.362,3922.958-1002.362,3921.981-1002.391,3921.032Zm3.9,4.529-.094,1.766h-3.354v-.47h3.025l-.517.47.376-1.766Z" transform="translate(1014.502 -3920.891)"/><path class="b" d="M-960.433,3921.407v-.376h2.631v.376l-1.221.141h-.188Zm3.213,5.4c1.081,0,1.625-.611,1.625-2.292v-3.486h.47v3.73c0,1.973-.958,2.706-2.227,2.706-1.362,0-2.283-.761-2.283-2.509v-1.015c0-.968,0-1.945-.028-2.913h.9c-.028.949-.028,1.926-.028,2.913v.742C-958.789,3926.3-958.178,3926.81-957.22,3926.81Zm1.691-5.261-1.034-.141v-.376h2.255v.376l-1.034.141Z" transform="translate(976.772 -3920.891)"/><path class="b" d="M-899.847,3925.353v.517l-.583.132.235-1.391h.573l-.038,1.362a3.951,3.951,0,0,1-1.9.451,3.089,3.089,0,0,1-3.176-3.289,3.14,3.14,0,0,1,3.166-3.288,3.626,3.626,0,0,1,1.813.451l.038,1.362h-.573l-.235-1.391.583.132v.573a2.193,2.193,0,0,0-1.513-.657c-1.268,0-2.293.987-2.293,2.819s.921,2.819,2.227,2.819A2.6,2.6,0,0,0-899.847,3925.353Z" transform="translate(927.696 -3919.847)"/><path class="b" d="M-855.038,3921.407v-.376h2.631v.376l-1.221.141h-.188Zm1.409,5.4,1.221.141v.376h-2.631v-.376l1.221-.141Zm-.517-2.866c0-.968,0-1.945-.028-2.913h.9c-.028.949-.028,1.926-.028,2.913v.47c0,.968,0,1.945.028,2.913h-.9c.028-.949.028-1.926.028-2.913Z" transform="translate(883.911 -3920.891)"/><path class="b" d="M-821.8,3923.135a3.029,3.029,0,0,1-2.866,3.289,2.986,2.986,0,0,1-2.875-3.289,3.042,3.042,0,0,1,2.875-3.288A2.984,2.984,0,0,1-821.8,3923.135Zm-2.866,2.819c1.325,0,1.879-1.409,1.879-2.819s-.554-2.819-1.879-2.819-1.889,1.409-1.889,2.819S-825.994,3925.954-824.669,3925.954Z" transform="translate(859.687 -3919.847)"/><path class="b" d="M-773.9,3926.951l.987-.141h.188l1.081.141v.376H-773.9Zm.592-5.628.582.226-1.128-.141v-.376h1.409l3.9,5.365v1h-.3Zm.207-.291.47.376v5.919h-.47Zm3.1,0h2.255v.376l-.94.141h-.188l-1.127-.141Zm.987,0h.47v6.361l-.47-.469Z" transform="translate(812.421 -3920.891)"/><path class="b" d="M-716.223,3921.407v-.376h1.315v.517H-715Zm1.315,5.4v.517h-1.315v-.376l1.221-.141Zm-.423-2.866c0-.968,0-1.945-.028-2.913h.9c-.028.949-.028,1.926-.028,2.913v.357c0,1.081,0,2.058.028,3.026h-.9c.028-.949.028-1.926.028-2.913Zm3.025-2.913.423.47h-3.025v-.47h3.354l.066,1.672h-.526Zm-.479,3.3h-2.123v-.432h2.123Zm1.484,1.325-.066,1.673h-3.542v-.47h3.213l-.423.47.291-1.673Zm-1.785-1.663.141-1h.423v2.227h-.423l-.141-1.043Z" transform="translate(761.605 -3920.891)"/><path class="b" d="M-665.619,3924.808c0-.611-.367-.883-1.184-1.2l-.357-.141c-.958-.376-1.616-.921-1.616-1.879,0-1.08.911-1.738,2.1-1.738a2.488,2.488,0,0,1,1.531.5l-.056,1.221h-.564l-.263-1.419.6.31v.469a1.7,1.7,0,0,0-1.306-.611c-.733,0-1.287.366-1.287,1.071,0,.592.385.94,1.071,1.2l.366.141c1.24.479,1.719,1.024,1.719,1.907,0,1.109-.93,1.785-2.217,1.785a3.6,3.6,0,0,1-1.823-.5l.056-1.315h.564l.244,1.447-.611-.263v-.451a2.286,2.286,0,0,0,1.541.611C-666.211,3925.954-665.619,3925.541-665.619,3924.808Z" transform="translate(719.908 -3919.847)"/></g><path class="b" d="M-1288.806,3712.108a11.2,11.2,0,0,0-2.408-3.572,11.187,11.187,0,0,0-3.572-2.408,11.164,11.164,0,0,0-4.375-.883,11.163,11.163,0,0,0-4.375.883,11.186,11.186,0,0,0-3.572,2.408,11.2,11.2,0,0,0-2.408,3.572,11.167,11.167,0,0,0-.883,4.375,11.213,11.213,0,0,0,.618,3.685,11.2,11.2,0,0,0,1.711,3.167l0,.006a8.152,8.152,0,0,0,1.066,1.212,10.47,10.47,0,0,1,3.3,7.614v.4h9.089v-.4a10.471,10.471,0,0,1,3.3-7.614,7.572,7.572,0,0,0,1.052-1.214l0-.007a11.19,11.19,0,0,0,1.709-3.164,11.22,11.22,0,0,0,.618-3.685A11.167,11.167,0,0,0-1288.806,3712.108Zm-9.138,13.136a.415.415,0,0,0-.168.281c-.01.164,0,.332,0,.5v4.213c0,.509-.006,1.019,0,1.528h-2.229v-6.274a.37.37,0,0,0-.079-.29c-.044-.048-.093-.092-.139-.139l-.85-.85-1.72-1.72v-7.41c0-.269.006-.54,0-.809h.021a2.356,2.356,0,0,0,1.5-.554c-.027.272-.041.574-.041.9a10.041,10.041,0,0,0,.431,3.089.588.588,0,0,0,.537.375.38.38,0,0,0,.063,0,3.223,3.223,0,0,0-.475.393,1.835,1.835,0,0,0-.585,1.279,1.838,1.838,0,0,0,1.91,1.693l.128,0h0a3.824,3.824,0,0,0,2.532-1.085,3.729,3.729,0,0,0,1.215-2.713c0-.06,0-.122-.006-.189.227-.011.464-.018.707-.022v5.051l-1.439,1.439-1.006,1.005Zm-1.271-8.854a.629.629,0,0,0,.313-.085.494.494,0,0,1,.221-.055,1.391,1.391,0,0,1,1,.792,8.394,8.394,0,0,0-1.543.38,6.062,6.062,0,0,0-1.085.466.378.378,0,0,0,.027-.049.25.25,0,0,0,.048-.144l0-.02a21.02,21.02,0,0,1,.4-2.706c.354-1.573.833-2.488,1.385-2.647l.006,0h0a.454.454,0,0,1,.021.164,8.806,8.806,0,0,1-1.039,3.056.628.628,0,0,0-.235.441A.438.438,0,0,0-1299.216,3716.391Zm.172,1.568a8.18,8.18,0,0,1,1.6-.38,2.2,2.2,0,0,1,.072.562,2.634,2.634,0,0,1-2.32,2.647h-.039a1.233,1.233,0,0,1-1.316-1.1,1.256,1.256,0,0,1,.431-.88A3.971,3.971,0,0,1-1299.044,3717.959Zm8.147,4.888-.022.032a6.807,6.807,0,0,1-.94,1.085,11.2,11.2,0,0,0-2.6,3.657,11.132,11.132,0,0,0-.951,4.143h-2.162v-5.417c0-.237.013-.478,0-.715l1.168-1.168,1.6-1.6a.386.386,0,0,0,.152-.265c0-.044,0-.089,0-.134V3719c0-.592.01-1.185,0-1.777,0-.009,0-.018,0-.028a.246.246,0,0,0-.006-.052l0-.011a.291.291,0,0,0-.111-.193.284.284,0,0,0-.178-.057h0l-.018,0-.012,0-.012,0-.01,0-.01,0-.014,0h-.009c-.389.007-.709.017-1,.031a2.386,2.386,0,0,0-.734-.979,2.071,2.071,0,0,0-1.282-.439c-.035,0-.07,0-.1,0a4.3,4.3,0,0,0,.666-1.057,3.917,3.917,0,0,0,.359-1.549c0-.751-.3-1.246-.831-1.355a1.057,1.057,0,0,0-.233-.021c-.706,0-1.306.686-1.783,2.041a12.334,12.334,0,0,0-.35,1.2c.1-.838.261-1.574.325-1.856v0a.689.689,0,0,0,.014-.131c0-.308-.259-.515-.644-.515a.851.851,0,0,0-.732.351,2.186,2.186,0,0,1-1.75,1.132c-.037,0-.078,0-.119,0l-.034,0h-.006a.747.747,0,0,0-.093-.008.317.317,0,0,0-.054.005h0a.3.3,0,0,0-.044.011h0a.3.3,0,0,0-.2.253.224.224,0,0,0,0,.04v8.107c0,.158-.008.318,0,.476s.139.251.239.351l.45.449,1.245,1.245.855.855v5.832c0,.143,0,.287,0,.43h-2.009a11.135,11.135,0,0,0-.951-4.143,11.2,11.2,0,0,0-2.6-3.657,7.4,7.4,0,0,1-.961-1.093l-.017-.024a10.331,10.331,0,0,1-2.165-6.363,10.441,10.441,0,0,1,10.429-10.43,10.441,10.441,0,0,1,10.43,10.43A10.331,10.331,0,0,1-1290.9,3722.847Z" transform="translate(0)"/></g></svg>