<svg xmlns="http://www.w3.org/2000/svg" width="1127.5" height="954.557" viewBox="0 0 1127.5 954.557">
  <g id="Capa_2_copia" data-name="Capa 2 copia" transform="translate(-4013.112 -6104.595)">
    <g id="Grupo_1" data-name="Grupo 1">
      <path id="Trazado_1320" data-name="Trazado 1320" d="M4271.172,6742.511h3.675v0h53.944v0h64.934v256.247h84.643V6742.511h77.686v172.567a8.315,8.315,0,0,0,8.315,8.313h61.057a8.316,8.316,0,0,1,8.315,8.316v58.733a8.314,8.314,0,0,0,8.315,8.315H5006.9a8.315,8.315,0,0,0,8.315-8.315v-58.733a8.316,8.316,0,0,1,8.316-8.316h58.733a8.315,8.315,0,0,0,8.315-8.315V6460.953a8.315,8.315,0,0,0-8.315-8.315h-58.637a8.315,8.315,0,0,1-8.315-8.315v-41.345a8.315,8.315,0,0,1,8.315-8.315h58.637a8.315,8.315,0,0,0,8.315-8.315V6214.961a8.315,8.315,0,0,1,8.315-8.315h0v-58.555H4941.1a9.372,9.372,0,0,1-9.372-9.373v-10.737h0V6104.6H4427.35V6124.5h-3.7c-.024,0-.047,0-.072,0h-26.088a3.769,3.769,0,0,0-3.768,3.769v15.652a3.769,3.769,0,0,1-3.769,3.769H4069.266a8.316,8.316,0,0,0-8.316,8.315v230.347h0a8.316,8.316,0,0,0,8.317,8.314h65.693a8.315,8.315,0,0,1,8.315,8.315v41.345a8.314,8.314,0,0,1-8.319,8.3h-65.688a8.315,8.315,0,0,0-8.315,8.315v290.343H4267.34V6748.1h0v-1.761A3.83,3.83,0,0,1,4271.172,6742.511Z" fill="#f2f2f2"/>
      <path id="Trazado_1321" data-name="Trazado 1321" d="M5140.612,7059.152V6206.646h-41.718a8.315,8.315,0,0,0-8.315,8.315v171.387a8.315,8.315,0,0,1-8.315,8.315h-58.637a8.315,8.315,0,0,0-8.315,8.315v41.345a8.315,8.315,0,0,0,8.315,8.315h58.637a8.315,8.315,0,0,1,8.315,8.315v454.123a8.315,8.315,0,0,1-8.315,8.315h-58.733a8.316,8.316,0,0,0-8.316,8.316v58.733a8.315,8.315,0,0,1-8.315,8.315H4642.056a8.314,8.314,0,0,1-8.315-8.315v-58.733a8.316,8.316,0,0,0-8.315-8.316h-61.057a8.315,8.315,0,0,1-8.315-8.313V6742.511h-77.686v256.247h-84.643V6742.511H4271.172a3.83,3.83,0,0,0-3.831,3.83v4.953h.809v307.858Z" fill="#b6b6b6"/>
      <path id="Trazado_1322" data-name="Trazado 1322" d="M5098.894,6104.6H4931.729v34.123a9.372,9.372,0,0,0,9.372,9.373h157.793v-43.5Z" fill="#b6b6b6"/>
      <path id="Trazado_1323" data-name="Trazado 1323" d="M4069.268,6452.636h65.688a8.314,8.314,0,0,0,8.319-8.3v-41.345a8.315,8.315,0,0,0-8.315-8.315h-65.693a8.316,8.316,0,0,1-8.317-8.314h0V6156.01a8.316,8.316,0,0,1,8.316-8.315h320.689a3.769,3.769,0,0,0,3.769-3.769v-15.652a3.769,3.769,0,0,1,3.768-3.769h26.088c.025,0,.048,0,.072,0a3.767,3.767,0,0,0,3.7-3.765V6104.6H4013.112v646.7h47.841V6460.951A8.315,8.315,0,0,1,4069.268,6452.636Z" fill="#b6b6b6"/>
      <rect id="Rectángulo_306" data-name="Rectángulo 306" width="53.945" height="0.004" transform="translate(4274.847 6742.507)" fill="none"/>
      <rect id="Rectángulo_307" data-name="Rectángulo 307" height="23.386" transform="translate(4931.729 6104.595)" fill="none"/>
      <path id="Trazado_1324" data-name="Trazado 1324" d="M4427.349,6120.737a3.767,3.767,0,0,1-3.7,3.765h3.7V6104.6h0Z" fill="none"/>
    </g>
    <g id="Grupo_102" data-name="Grupo 102">
      <rect id="Rectángulo_307-2" data-name="Rectángulo 307" width="173.924" height="57.975" rx="8.315" transform="translate(4219.801 6394.666)" fill="#b6b6b6"/>
      <rect id="Rectángulo_308" data-name="Rectángulo 308" width="155.372" height="57.975" rx="8.315" transform="translate(4478.368 6394.666)" fill="#b6b6b6"/>
      <rect id="Rectángulo_309" data-name="Rectángulo 309" width="82.323" height="57.975" rx="8.315" transform="translate(4718.382 6394.666)" fill="#b6b6b6"/>
      <rect id="Rectángulo_310" data-name="Rectángulo 310" width="95.079" height="57.975" rx="8.315" transform="translate(4836.651 6394.666)" fill="#b6b6b6"/>
      <path id="Trazado_1146" data-name="Trazado 1146" d="M4800.706,6341.91h46.379v-31.667a3.154,3.154,0,0,1,3.143-3.164h61.591a8.344,8.344,0,0,0,8.315-8.373h0v-61.474a8.346,8.346,0,0,0-8.315-8.373h-177a8.345,8.345,0,0,0-8.315,8.373v61.474a8.344,8.344,0,0,0,8.315,8.373h62.75a3.152,3.152,0,0,1,3.142,3.163h0Z" fill="#b6b6b6"/>
    </g>
    <g id="Grupo_103" data-name="Grupo 103">
      <path id="Trazado_1148" data-name="Trazado 1148" d="M5102.174,6232.338" fill="none" stroke="#666" stroke-miterlimit="10" stroke-width="2"/>
      <path id="Trazado_1149" data-name="Trazado 1149" d="M4055.726,6232.338" fill="none" stroke="#666" stroke-miterlimit="10" stroke-width="2"/>
    </g>
    <g id="Grupo_104" data-name="Grupo 104">
      <line id="Línea_1" data-name="Línea 1" y2="60.293" transform="translate(4840.708 6768.796)" fill="none" stroke="#666" stroke-miterlimit="10" stroke-width="2"/>
    </g>
    <g id="Grupo_107" data-name="Grupo 107">
      <g id="Grupo_105" data-name="Grupo 105">
        <path id="Rectángulo_311" data-name="Rectángulo 311" d="M4234.78,6350.432h57.005a1.064,1.064,0,0,1,1.064,1.064h0a1.064,1.064,0,0,1-1.064,1.064H4234.78a1.064,1.064,0,0,1-1.064-1.064h0A1.064,1.064,0,0,1,4234.78,6350.432Z" fill="#b6b6b6"/>
        <path id="Rectángulo_312" data-name="Rectángulo 312" d="M5030.189,6350.432h70.92a1.064,1.064,0,0,1,1.064,1.064h0a1.064,1.064,0,0,1-1.064,1.064h-70.92a1.064,1.064,0,0,1-1.064-1.064h0A1.064,1.064,0,0,1,5030.189,6350.432Z" fill="#b6b6b6"/>
        <path id="Rectángulo_313" data-name="Rectángulo 313" d="M4316.523,6350.432h63.383a1.064,1.064,0,0,1,1.064,1.064h0a1.064,1.064,0,0,1-1.064,1.064h-63.383a1.064,1.064,0,0,1-1.064-1.064h0A1.064,1.064,0,0,1,4316.523,6350.432Z" fill="#b6b6b6"/>
        <path id="Rectángulo_314" data-name="Rectángulo 314" d="M4056.79,6350.432h72.667a1.064,1.064,0,0,1,1.064,1.064h0a1.064,1.064,0,0,1-1.064,1.064H4056.79a1.064,1.064,0,0,1-1.064-1.064h0A1.064,1.064,0,0,1,4056.79,6350.432Z" fill="#b6b6b6"/>
        <path id="Rectángulo_315" data-name="Rectángulo 315" d="M4234.78,6494.479h57.005a1.064,1.064,0,0,1,1.064,1.064h0a1.064,1.064,0,0,1-1.064,1.064H4234.78a1.064,1.064,0,0,1-1.064-1.064h0A1.064,1.064,0,0,1,4234.78,6494.479Z" fill="#b6b6b6"/>
        <path id="Rectángulo_316" data-name="Rectángulo 316" d="M4056.79,6494.479h72.667a1.064,1.064,0,0,1,1.064,1.064h0a1.064,1.064,0,0,1-1.064,1.064H4056.79a1.065,1.065,0,0,1-1.064-1.064h0A1.064,1.064,0,0,1,4056.79,6494.479Z" fill="#b6b6b6"/>
        <path id="Rectángulo_317" data-name="Rectángulo 317" d="M4841.772,6494.479h77.3a1.063,1.063,0,0,1,1.064,1.064h0a1.064,1.064,0,0,1-1.064,1.064h-77.3a1.064,1.064,0,0,1-1.064-1.064h0A1.064,1.064,0,0,1,4841.772,6494.479Z" fill="#b6b6b6"/>
        <path id="Rectángulo_318" data-name="Rectángulo 318" d="M5030.189,6494.479h70.92a1.064,1.064,0,0,1,1.064,1.064h0a1.064,1.064,0,0,1-1.064,1.064h-70.92a1.065,1.065,0,0,1-1.064-1.064h0A1.064,1.064,0,0,1,5030.189,6494.479Z" fill="#b6b6b6"/>
        <path id="Rectángulo_319" data-name="Rectángulo 319" d="M4316.523,6494.479h63.383a1.064,1.064,0,0,1,1.064,1.064h0a1.064,1.064,0,0,1-1.064,1.064h-63.383a1.065,1.065,0,0,1-1.064-1.064h0A1.064,1.064,0,0,1,4316.523,6494.479Z" fill="#b6b6b6"/>
        <path id="Rectángulo_320" data-name="Rectángulo 320" d="M4737.418,6494.479h62.224a1.064,1.064,0,0,1,1.064,1.064h0a1.064,1.064,0,0,1-1.064,1.064h-62.224a1.065,1.065,0,0,1-1.064-1.064h0A1.064,1.064,0,0,1,4737.418,6494.479Z" fill="#b6b6b6"/>
        <path id="Rectángulo_321" data-name="Rectángulo 321" d="M5030.189,6539.7h70.92a1.064,1.064,0,0,1,1.064,1.064h0a1.064,1.064,0,0,1-1.064,1.064h-70.92a1.064,1.064,0,0,1-1.064-1.064h0A1.065,1.065,0,0,1,5030.189,6539.7Z" fill="#b6b6b6"/>
        <path id="Rectángulo_322" data-name="Rectángulo 322" d="M4316.523,6539.7h63.383a1.064,1.064,0,0,1,1.064,1.064h0a1.064,1.064,0,0,1-1.064,1.064h-63.383a1.064,1.064,0,0,1-1.064-1.064h0A1.065,1.065,0,0,1,4316.523,6539.7Z" fill="#b6b6b6"/>
        <path id="Rectángulo_323" data-name="Rectángulo 323" d="M4056.79,6539.7h72.667a1.064,1.064,0,0,1,1.064,1.064h0a1.064,1.064,0,0,1-1.064,1.064H4056.79a1.064,1.064,0,0,1-1.064-1.064h0A1.064,1.064,0,0,1,4056.79,6539.7Z" fill="#b6b6b6"/>
        <path id="Rectángulo_324" data-name="Rectángulo 324" d="M4841.772,6539.7h77.3a1.064,1.064,0,0,1,1.064,1.064h0a1.063,1.063,0,0,1-1.064,1.064h-77.3a1.064,1.064,0,0,1-1.064-1.064h0A1.064,1.064,0,0,1,4841.772,6539.7Z" fill="#b6b6b6"/>
        <path id="Rectángulo_325" data-name="Rectángulo 325" d="M4234.78,6539.7h57.005a1.064,1.064,0,0,1,1.064,1.064h0a1.064,1.064,0,0,1-1.064,1.064H4234.78a1.064,1.064,0,0,1-1.064-1.064h0A1.064,1.064,0,0,1,4234.78,6539.7Z" fill="#b6b6b6"/>
        <path id="Rectángulo_326" data-name="Rectángulo 326" d="M4737.418,6539.7h62.224a1.064,1.064,0,0,1,1.064,1.064h0a1.064,1.064,0,0,1-1.064,1.064h-62.224a1.064,1.064,0,0,1-1.064-1.064h0A1.065,1.065,0,0,1,4737.418,6539.7Z" fill="#b6b6b6"/>
        <path id="Rectángulo_327" data-name="Rectángulo 327" d="M4737.418,6577.962h62.224a1.064,1.064,0,0,1,1.064,1.064h0a1.064,1.064,0,0,1-1.064,1.064h-62.224a1.065,1.065,0,0,1-1.064-1.064h0A1.064,1.064,0,0,1,4737.418,6577.962Z" fill="#b6b6b6"/>
        <path id="Rectángulo_328" data-name="Rectángulo 328" d="M4316.523,6577.962h63.383a1.064,1.064,0,0,1,1.064,1.064h0a1.064,1.064,0,0,1-1.064,1.064h-63.383a1.065,1.065,0,0,1-1.064-1.064h0A1.064,1.064,0,0,1,4316.523,6577.962Z" fill="#b6b6b6"/>
        <path id="Rectángulo_329" data-name="Rectángulo 329" d="M4234.78,6577.962h57.005a1.064,1.064,0,0,1,1.064,1.064h0a1.064,1.064,0,0,1-1.064,1.064H4234.78a1.064,1.064,0,0,1-1.064-1.064h0A1.064,1.064,0,0,1,4234.78,6577.962Z" fill="#b6b6b6"/>
        <path id="Rectángulo_330" data-name="Rectángulo 330" d="M4841.772,6577.962h77.3a1.063,1.063,0,0,1,1.064,1.064h0a1.064,1.064,0,0,1-1.064,1.064h-77.3a1.064,1.064,0,0,1-1.064-1.064h0A1.064,1.064,0,0,1,4841.772,6577.962Z" fill="#b6b6b6"/>
        <path id="Rectángulo_331" data-name="Rectángulo 331" d="M5030.189,6577.962h70.92a1.064,1.064,0,0,1,1.064,1.064h0a1.064,1.064,0,0,1-1.064,1.064h-70.92a1.065,1.065,0,0,1-1.064-1.064h0A1.064,1.064,0,0,1,5030.189,6577.962Z" fill="#b6b6b6"/>
        <path id="Rectángulo_332" data-name="Rectángulo 332" d="M4056.79,6577.962h72.667a1.064,1.064,0,0,1,1.064,1.064h0a1.064,1.064,0,0,1-1.064,1.064H4056.79a1.065,1.065,0,0,1-1.064-1.064h0A1.064,1.064,0,0,1,4056.79,6577.962Z" fill="#b6b6b6"/>
        <path id="Rectángulo_333" data-name="Rectángulo 333" d="M5030.189,6616.225h70.92a1.064,1.064,0,0,1,1.064,1.064h0a1.064,1.064,0,0,1-1.064,1.064h-70.92a1.064,1.064,0,0,1-1.064-1.064h0A1.065,1.065,0,0,1,5030.189,6616.225Z" fill="#b6b6b6"/>
        <path id="Rectángulo_334" data-name="Rectángulo 334" d="M4056.79,6616.225h72.667a1.064,1.064,0,0,1,1.064,1.064h0a1.064,1.064,0,0,1-1.064,1.064H4056.79a1.064,1.064,0,0,1-1.064-1.064h0A1.065,1.065,0,0,1,4056.79,6616.225Z" fill="#b6b6b6"/>
        <path id="Rectángulo_335" data-name="Rectángulo 335" d="M4056.79,6661.445h72.667a1.064,1.064,0,0,1,1.064,1.064h0a1.064,1.064,0,0,1-1.064,1.064H4056.79a1.064,1.064,0,0,1-1.064-1.064h0A1.065,1.065,0,0,1,4056.79,6661.445Z" fill="#b6b6b6"/>
        <path id="Rectángulo_336" data-name="Rectángulo 336" d="M5030.189,6661.445h70.92a1.064,1.064,0,0,1,1.064,1.064h0a1.064,1.064,0,0,1-1.064,1.064h-70.92a1.064,1.064,0,0,1-1.064-1.064h0A1.065,1.065,0,0,1,5030.189,6661.445Z" fill="#b6b6b6"/>
        <path id="Rectángulo_337" data-name="Rectángulo 337" d="M4056.79,6700.867h72.667a1.064,1.064,0,0,1,1.064,1.064h0a1.064,1.064,0,0,1-1.064,1.064H4056.79a1.064,1.064,0,0,1-1.064-1.064h0A1.065,1.065,0,0,1,4056.79,6700.867Z" fill="#b6b6b6"/>
        <path id="Rectángulo_338" data-name="Rectángulo 338" d="M5030.189,6700.867h70.92a1.064,1.064,0,0,1,1.064,1.064h0a1.064,1.064,0,0,1-1.064,1.064h-70.92a1.064,1.064,0,0,1-1.064-1.064h0A1.065,1.065,0,0,1,5030.189,6700.867Z" fill="#b6b6b6"/>
        <path id="Rectángulo_339" data-name="Rectángulo 339" d="M4553.978,6742.514h74.349a1.064,1.064,0,0,1,1.064,1.064h0a1.064,1.064,0,0,1-1.064,1.064h-74.349a1.064,1.064,0,0,1-1.064-1.064h0A1.064,1.064,0,0,1,4553.978,6742.514Z" fill="#b6b6b6"/>
        <path id="Rectángulo_340" data-name="Rectángulo 340" d="M5030.189,6742.419h74.349a1.064,1.064,0,0,1,1.064,1.064h0a1.064,1.064,0,0,1-1.064,1.064h-74.349a1.065,1.065,0,0,1-1.064-1.064h0A1.064,1.064,0,0,1,5030.189,6742.419Z" fill="#b6b6b6"/>
        <path id="Rectángulo_341" data-name="Rectángulo 341" d="M4056.79,6740.291h72.667a1.064,1.064,0,0,1,1.064,1.064h0a1.064,1.064,0,0,1-1.064,1.064H4056.79a1.065,1.065,0,0,1-1.064-1.064h0A1.064,1.064,0,0,1,4056.79,6740.291Z" fill="#b6b6b6"/>
        <path id="Rectángulo_342" data-name="Rectángulo 342" d="M4556.106,6760.772h72.221a1.064,1.064,0,0,1,1.064,1.064h0a1.064,1.064,0,0,1-1.064,1.064h-72.221a1.064,1.064,0,0,1-1.064-1.064h0A1.065,1.065,0,0,1,4556.106,6760.772Z" fill="#b6b6b6"/>
        <path id="Rectángulo_343" data-name="Rectángulo 343" d="M5030.189,6760.772h70.92a1.064,1.064,0,0,1,1.064,1.064h0a1.064,1.064,0,0,1-1.064,1.064h-70.92a1.064,1.064,0,0,1-1.064-1.064h0A1.065,1.065,0,0,1,5030.189,6760.772Z" fill="#b6b6b6"/>
        <path id="Rectángulo_344" data-name="Rectángulo 344" d="M4560.362,6835.369h67.965a1.064,1.064,0,0,1,1.064,1.064h0a1.064,1.064,0,0,1-1.064,1.064h-67.965a1.064,1.064,0,0,1-1.064-1.064h0A1.064,1.064,0,0,1,4560.362,6835.369Z" fill="#b6b6b6"/>
        <path id="Rectángulo_345" data-name="Rectángulo 345" d="M5030.189,6835.369h70.92a1.064,1.064,0,0,1,1.064,1.064h0a1.064,1.064,0,0,1-1.064,1.064h-70.92a1.064,1.064,0,0,1-1.064-1.064h0A1.064,1.064,0,0,1,5030.189,6835.369Z" fill="#b6b6b6"/>
        <path id="Rectángulo_346" data-name="Rectángulo 346" d="M5030.189,6880.59h70.92a1.064,1.064,0,0,1,1.064,1.064h0a1.064,1.064,0,0,1-1.064,1.064h-70.92a1.065,1.065,0,0,1-1.064-1.064h0A1.064,1.064,0,0,1,5030.189,6880.59Z" fill="#b6b6b6"/>
        <path id="Rectángulo_347" data-name="Rectángulo 347" d="M4560.362,6880.59h67.965a1.064,1.064,0,0,1,1.064,1.064h0a1.064,1.064,0,0,1-1.064,1.064h-67.965a1.065,1.065,0,0,1-1.064-1.064h0A1.064,1.064,0,0,1,4560.362,6880.59Z" fill="#b6b6b6"/>
        <path id="Rectángulo_348" data-name="Rectángulo 348" d="M4560.362,6799.424h67.965a1.064,1.064,0,0,1,1.064,1.064h0a1.064,1.064,0,0,1-1.064,1.064h-67.965a1.065,1.065,0,0,1-1.064-1.064h0A1.064,1.064,0,0,1,4560.362,6799.424Z" fill="#b6b6b6"/>
        <path id="Rectángulo_349" data-name="Rectángulo 349" d="M5030.189,6799.424h70.92a1.064,1.064,0,0,1,1.064,1.064h0a1.064,1.064,0,0,1-1.064,1.064h-70.92a1.065,1.065,0,0,1-1.064-1.064h0A1.064,1.064,0,0,1,5030.189,6799.424Z" fill="#b6b6b6"/>
        <path id="Rectángulo_350" data-name="Rectángulo 350" d="M4056.79,6303.163h72.667a1.064,1.064,0,0,1,1.064,1.064h0a1.064,1.064,0,0,1-1.064,1.064H4056.79a1.065,1.065,0,0,1-1.064-1.064h0A1.064,1.064,0,0,1,4056.79,6303.163Z" fill="#b6b6b6"/>
        <path id="Rectángulo_351" data-name="Rectángulo 351" d="M4316.523,6303.163h63.383a1.064,1.064,0,0,1,1.064,1.064h0a1.064,1.064,0,0,1-1.064,1.064h-63.383a1.065,1.065,0,0,1-1.064-1.064h0A1.064,1.064,0,0,1,4316.523,6303.163Z" fill="#b6b6b6"/>
        <path id="Rectángulo_352" data-name="Rectángulo 352" d="M4234.78,6303.163h57.005a1.064,1.064,0,0,1,1.064,1.064h0a1.064,1.064,0,0,1-1.064,1.064H4234.78a1.064,1.064,0,0,1-1.064-1.064h0A1.064,1.064,0,0,1,4234.78,6303.163Z" fill="#b6b6b6"/>
        <path id="Rectángulo_353" data-name="Rectángulo 353" d="M5030.189,6303.163h70.92a1.064,1.064,0,0,1,1.064,1.064h0a1.064,1.064,0,0,1-1.064,1.064h-70.92a1.065,1.065,0,0,1-1.064-1.064h0A1.064,1.064,0,0,1,5030.189,6303.163Z" fill="#b6b6b6"/>
        <path id="Rectángulo_354" data-name="Rectángulo 354" d="M5030.189,6267.219h70.92a1.063,1.063,0,0,1,1.064,1.064h0a1.064,1.064,0,0,1-1.064,1.064h-70.92a1.064,1.064,0,0,1-1.064-1.064h0A1.064,1.064,0,0,1,5030.189,6267.219Z" fill="#b6b6b6"/>
        <path id="Rectángulo_355" data-name="Rectángulo 355" d="M4234.78,6267.219h57.005a1.063,1.063,0,0,1,1.064,1.064h0a1.064,1.064,0,0,1-1.064,1.064H4234.78a1.064,1.064,0,0,1-1.064-1.064h0A1.063,1.063,0,0,1,4234.78,6267.219Z" fill="#b6b6b6"/>
        <path id="Rectángulo_356" data-name="Rectángulo 356" d="M4316.523,6267.219h63.383a1.063,1.063,0,0,1,1.064,1.064h0a1.064,1.064,0,0,1-1.064,1.064h-63.383a1.064,1.064,0,0,1-1.064-1.064h0A1.064,1.064,0,0,1,4316.523,6267.219Z" fill="#b6b6b6"/>
        <path id="Rectángulo_357" data-name="Rectángulo 357" d="M4056.79,6267.219h72.667a1.063,1.063,0,0,1,1.064,1.064h0a1.064,1.064,0,0,1-1.064,1.064H4056.79a1.064,1.064,0,0,1-1.064-1.064h0A1.064,1.064,0,0,1,4056.79,6267.219Z" fill="#b6b6b6"/>
        <path id="Rectángulo_358" data-name="Rectángulo 358" d="M5030.189,6231.274h70.92a1.064,1.064,0,0,1,1.064,1.064h0a1.064,1.064,0,0,1-1.064,1.064h-70.92a1.065,1.065,0,0,1-1.064-1.064h0A1.064,1.064,0,0,1,5030.189,6231.274Z" fill="#b6b6b6"/>
        <path id="Rectángulo_359" data-name="Rectángulo 359" d="M4316.523,6231.274h63.383a1.064,1.064,0,0,1,1.064,1.064h0a1.064,1.064,0,0,1-1.064,1.064h-63.383a1.065,1.065,0,0,1-1.064-1.064h0A1.064,1.064,0,0,1,4316.523,6231.274Z" fill="#b6b6b6"/>
        <path id="Rectángulo_360" data-name="Rectángulo 360" d="M4234.78,6231.274h57.005a1.064,1.064,0,0,1,1.064,1.064h0a1.064,1.064,0,0,1-1.064,1.064H4234.78a1.064,1.064,0,0,1-1.064-1.064h0A1.064,1.064,0,0,1,4234.78,6231.274Z" fill="#b6b6b6"/>
        <path id="Rectángulo_361" data-name="Rectángulo 361" d="M4056.79,6231.274h72.667a1.064,1.064,0,0,1,1.064,1.064h0a1.064,1.064,0,0,1-1.064,1.064H4056.79a1.065,1.065,0,0,1-1.064-1.064h0A1.064,1.064,0,0,1,4056.79,6231.274Z" fill="#b6b6b6"/>
        <path id="Rectángulo_362" data-name="Rectángulo 362" d="M5030.189,6189.532h67.641a1.065,1.065,0,0,1,1.064,1.064h0a1.064,1.064,0,0,1-1.064,1.064h-67.641a1.064,1.064,0,0,1-1.064-1.064h0A1.065,1.065,0,0,1,5030.189,6189.532Z" fill="#b6b6b6"/>
        <path id="Trazado_1150" data-name="Trazado 1150" d="M5098.9,6147.808v-.017h-69.77v.017a2.113,2.113,0,0,0,2.112,2.111h65.543a2.113,2.113,0,0,0,2.115-2.109Z" fill="#b6b6b6"/>
      </g>
      <g id="Grupo_106" data-name="Grupo 106">
        <path id="Rectángulo_363" data-name="Rectángulo 363" d="M4489.867,6350.432h60.906a1.064,1.064,0,0,1,1.064,1.064h0a1.064,1.064,0,0,1-1.064,1.064h-60.906a1.064,1.064,0,0,1-1.064-1.064h0A1.064,1.064,0,0,1,4489.867,6350.432Z" fill="#b6b6b6"/>
        <path id="Rectángulo_364" data-name="Rectángulo 364" d="M4561.367,6350.432h66.96a1.064,1.064,0,0,1,1.064,1.064h0a1.064,1.064,0,0,1-1.064,1.064h-66.96a1.063,1.063,0,0,1-1.064-1.064h0A1.063,1.063,0,0,1,4561.367,6350.432Z" fill="#b6b6b6"/>
        <path id="Rectángulo_365" data-name="Rectángulo 365" d="M4561.367,6494.479h66.96a1.064,1.064,0,0,1,1.064,1.064h0a1.064,1.064,0,0,1-1.064,1.064h-66.96a1.064,1.064,0,0,1-1.064-1.064h0A1.063,1.063,0,0,1,4561.367,6494.479Z" fill="#b6b6b6"/>
        <path id="Rectángulo_366" data-name="Rectángulo 366" d="M4489.867,6494.479h60.906a1.064,1.064,0,0,1,1.064,1.064h0a1.064,1.064,0,0,1-1.064,1.064h-60.906a1.065,1.065,0,0,1-1.064-1.064h0A1.064,1.064,0,0,1,4489.867,6494.479Z" fill="#b6b6b6"/>
        <path id="Rectángulo_367" data-name="Rectángulo 367" d="M4561.367,6539.7h66.96a1.064,1.064,0,0,1,1.064,1.064h0a1.064,1.064,0,0,1-1.064,1.064h-66.96a1.063,1.063,0,0,1-1.064-1.064h0A1.064,1.064,0,0,1,4561.367,6539.7Z" fill="#b6b6b6"/>
        <path id="Rectángulo_368" data-name="Rectángulo 368" d="M4489.867,6539.7h60.906a1.064,1.064,0,0,1,1.064,1.064h0a1.064,1.064,0,0,1-1.064,1.064h-60.906a1.064,1.064,0,0,1-1.064-1.064h0A1.064,1.064,0,0,1,4489.867,6539.7Z" fill="#b6b6b6"/>
        <path id="Rectángulo_369" data-name="Rectángulo 369" d="M4489.867,6577.962h60.906a1.064,1.064,0,0,1,1.064,1.064h0a1.064,1.064,0,0,1-1.064,1.064h-60.906a1.065,1.065,0,0,1-1.064-1.064h0A1.064,1.064,0,0,1,4489.867,6577.962Z" fill="#b6b6b6"/>
        <path id="Rectángulo_370" data-name="Rectángulo 370" d="M4561.367,6577.962h66.96a1.064,1.064,0,0,1,1.064,1.064h0a1.064,1.064,0,0,1-1.064,1.064h-66.96a1.064,1.064,0,0,1-1.064-1.064h0A1.063,1.063,0,0,1,4561.367,6577.962Z" fill="#b6b6b6"/>
        <path id="Rectángulo_371" data-name="Rectángulo 371" d="M4561.367,6303.163h66.96a1.064,1.064,0,0,1,1.064,1.064h0a1.064,1.064,0,0,1-1.064,1.064h-66.96a1.064,1.064,0,0,1-1.064-1.064h0A1.063,1.063,0,0,1,4561.367,6303.163Z" fill="#b6b6b6"/>
        <path id="Rectángulo_372" data-name="Rectángulo 372" d="M4489.867,6303.163h60.906a1.064,1.064,0,0,1,1.064,1.064h0a1.064,1.064,0,0,1-1.064,1.064h-60.906a1.065,1.065,0,0,1-1.064-1.064h0A1.064,1.064,0,0,1,4489.867,6303.163Z" fill="#b6b6b6"/>
      </g>
    </g>
    <g id="Grupo_108" data-name="Grupo 108">
      <path id="Rectángulo_373" data-name="Rectángulo 373" d="M4556.052,6308h0a1.064,1.064,0,0,1,1.064,1.064v37.409a1.064,1.064,0,0,1-1.064,1.064h0a1.064,1.064,0,0,1-1.064-1.064v-37.409A1.064,1.064,0,0,1,4556.052,6308Z" fill="#b6b6b6"/>
      <path id="Rectángulo_374" data-name="Rectángulo 374" d="M4556.052,6242.676h0a1.064,1.064,0,0,1,1.064,1.064v55.46a1.064,1.064,0,0,1-1.064,1.064h0a1.064,1.064,0,0,1-1.064-1.064v-55.46A1.064,1.064,0,0,1,4556.052,6242.676Z" fill="#b6b6b6"/>
      <path id="Rectángulo_375" data-name="Rectángulo 375" d="M4556.052,6355.459h0a1.064,1.064,0,0,1,1.064,1.064V6390.7a1.064,1.064,0,0,1-1.064,1.064h0a1.064,1.064,0,0,1-1.064-1.064v-34.181A1.064,1.064,0,0,1,4556.052,6355.459Z" fill="#b6b6b6"/>
      <path id="Rectángulo_377" data-name="Rectángulo 377" d="M4556.052,6394.668h0a1.064,1.064,0,0,1,1.064,1.064v55.846a1.064,1.064,0,0,1-1.064,1.064h0a1.064,1.064,0,0,1-1.064-1.064v-55.846A1.064,1.064,0,0,1,4556.052,6394.668Z" fill="#b6b6b6"/>
      <path id="Rectángulo_378" data-name="Rectángulo 378" d="M4519.818,6242.676h0a1.064,1.064,0,0,1,1.064,1.064v55.46a1.065,1.065,0,0,1-1.064,1.064h0a1.064,1.064,0,0,1-1.064-1.064v-55.46A1.064,1.064,0,0,1,4519.818,6242.676Z" fill="#b6b6b6"/>
      <rect id="Rectángulo_379" data-name="Rectángulo 379" width="2.128" height="1.064" transform="translate(4518.753 6303.163)" fill="#b6b6b6"/>
      <path id="Rectángulo_381" data-name="Rectángulo 381" d="M4483.294,6242.676h0a1.064,1.064,0,0,1,1.064,1.064v55.46a1.065,1.065,0,0,1-1.064,1.064h0a1.064,1.064,0,0,1-1.064-1.064v-55.46A1.064,1.064,0,0,1,4483.294,6242.676Z" fill="#b6b6b6"/>
      <rect id="Rectángulo_382" data-name="Rectángulo 382" width="2.128" height="1.064" transform="translate(4482.23 6303.163)" fill="#b6b6b6"/>
      <path id="Rectángulo_384" data-name="Rectángulo 384" d="M4592.866,6242.676h0a1.064,1.064,0,0,1,1.064,1.064v55.46a1.064,1.064,0,0,1-1.064,1.064h0a1.065,1.065,0,0,1-1.064-1.064v-55.46A1.064,1.064,0,0,1,4592.866,6242.676Z" fill="#b6b6b6"/>
      <rect id="Rectángulo_386" data-name="Rectángulo 386" width="2.128" height="1.064" transform="translate(4591.802 6303.163)" fill="#b6b6b6"/>
      <path id="Rectángulo_387" data-name="Rectángulo 387" d="M4629.39,6242.676h0a1.064,1.064,0,0,1,1.064,1.064v55.46a1.064,1.064,0,0,1-1.064,1.064h0a1.064,1.064,0,0,1-1.064-1.064v-55.46A1.063,1.063,0,0,1,4629.39,6242.676Z" fill="#b6b6b6"/>
      <rect id="Rectángulo_389" data-name="Rectángulo 389" width="2.128" height="1.064" transform="translate(4628.326 6303.163)" fill="#b6b6b6"/>
      <path id="Rectángulo_390" data-name="Rectángulo 390" d="M4678.372,6934.216h0a1.064,1.064,0,0,1,1.064,1.064v70.158a1.064,1.064,0,0,1-1.064,1.064h0a1.064,1.064,0,0,1-1.064-1.064V6935.28A1.064,1.064,0,0,1,4678.372,6934.216Z" fill="#b6b6b6"/>
      <path id="Rectángulo_391" data-name="Rectángulo 391" d="M4722.441,6934.216h0a1.064,1.064,0,0,1,1.064,1.064v70.158a1.065,1.065,0,0,1-1.064,1.064h0a1.064,1.064,0,0,1-1.064-1.064V6935.28A1.064,1.064,0,0,1,4722.441,6934.216Z" fill="#b6b6b6"/>
      <path id="Rectángulo_392" data-name="Rectángulo 392" d="M4731.137,6934.216h0a1.064,1.064,0,0,1,1.064,1.064v70.158a1.065,1.065,0,0,1-1.064,1.064h0a1.064,1.064,0,0,1-1.064-1.064V6935.28A1.063,1.063,0,0,1,4731.137,6934.216Z" fill="#b6b6b6"/>
      <path id="Rectángulo_393" data-name="Rectángulo 393" d="M4769.4,6934.216h0a1.064,1.064,0,0,1,1.064,1.064v70.158a1.064,1.064,0,0,1-1.064,1.064h0a1.064,1.064,0,0,1-1.064-1.064V6935.28A1.064,1.064,0,0,1,4769.4,6934.216Z" fill="#b6b6b6"/>
      <path id="Rectángulo_394" data-name="Rectángulo 394" d="M4804.184,6934.216h0a1.064,1.064,0,0,1,1.064,1.064v70.158a1.064,1.064,0,0,1-1.064,1.064h0a1.065,1.065,0,0,1-1.064-1.064V6935.28A1.064,1.064,0,0,1,4804.184,6934.216Z" fill="#b6b6b6"/>
      <path id="Rectángulo_395" data-name="Rectángulo 395" d="M4840.708,6934.216h0a1.064,1.064,0,0,1,1.064,1.064v70.158a1.065,1.065,0,0,1-1.064,1.064h0a1.064,1.064,0,0,1-1.064-1.064V6935.28A1.064,1.064,0,0,1,4840.708,6934.216Z" fill="#b6b6b6"/>
      <path id="Rectángulo_396" data-name="Rectángulo 396" d="M4884.19,6934.216h0a1.064,1.064,0,0,1,1.064,1.064v70.158a1.064,1.064,0,0,1-1.064,1.064h0a1.065,1.065,0,0,1-1.064-1.064V6935.28A1.064,1.064,0,0,1,4884.19,6934.216Z" fill="#b6b6b6"/>
      <path id="Rectángulo_397" data-name="Rectángulo 397" d="M4931.728,6934.216h0a1.064,1.064,0,0,1,1.064,1.064v70.158a1.064,1.064,0,0,1-1.064,1.064h0a1.065,1.065,0,0,1-1.064-1.064V6935.28A1.064,1.064,0,0,1,4931.728,6934.216Z" fill="#b6b6b6"/>
      <path id="Rectángulo_398" data-name="Rectángulo 398" d="M4972.89,6934.216h0a1.064,1.064,0,0,1,1.064,1.064v70.158a1.064,1.064,0,0,1-1.064,1.064h0a1.064,1.064,0,0,1-1.064-1.064V6935.28A1.063,1.063,0,0,1,4972.89,6934.216Z" fill="#b6b6b6"/>
      <path id="Rectángulo_399" data-name="Rectángulo 399" d="M4736.354,6768.8h0a1.064,1.064,0,0,1,1.064,1.064v58.165a1.064,1.064,0,0,1-1.064,1.064h0a1.064,1.064,0,0,1-1.064-1.064V6769.86A1.064,1.064,0,0,1,4736.354,6768.8Z" fill="#b6b6b6"/>
      <path id="Rectángulo_400" data-name="Rectángulo 400" d="M4789.114,6768.8h0a1.064,1.064,0,0,1,1.064,1.064v58.165a1.064,1.064,0,0,1-1.064,1.064h0a1.064,1.064,0,0,1-1.064-1.064V6769.86A1.064,1.064,0,0,1,4789.114,6768.8Z" fill="#b6b6b6"/>
      <path id="Rectángulo_401" data-name="Rectángulo 401" d="M4840.708,6768.8h0a1.064,1.064,0,0,1,1.064,1.064v58.165a1.064,1.064,0,0,1-1.064,1.064h0a1.064,1.064,0,0,1-1.064-1.064V6769.86A1.064,1.064,0,0,1,4840.708,6768.8Z" fill="#b6b6b6"/>
      <path id="Rectángulo_402" data-name="Rectángulo 402" d="M4884.19,6768.8h0a1.064,1.064,0,0,1,1.064,1.064v58.165a1.064,1.064,0,0,1-1.064,1.064h0a1.064,1.064,0,0,1-1.064-1.064V6769.86A1.064,1.064,0,0,1,4884.19,6768.8Z" fill="#b6b6b6"/>
      <path id="Rectángulo_403" data-name="Rectángulo 403" d="M4925.061,6768.8h0a1.064,1.064,0,0,1,1.064,1.064v58.165a1.064,1.064,0,0,1-1.064,1.064h0a1.064,1.064,0,0,1-1.064-1.064V6769.86A1.064,1.064,0,0,1,4925.061,6768.8Z" fill="#b6b6b6"/>
      <path id="Rectángulo_404" data-name="Rectángulo 404" d="M4227.629,6584.825h0a1.064,1.064,0,0,1,1.064,1.064v72.078a1.065,1.065,0,0,1-1.064,1.064h0a1.064,1.064,0,0,1-1.064-1.064v-72.078A1.063,1.063,0,0,1,4227.629,6584.825Z" fill="#b6b6b6"/>
      <path id="Rectángulo_405" data-name="Rectángulo 405" d="M4292.849,6584.825h0a1.063,1.063,0,0,1,1.064,1.064v72.078a1.064,1.064,0,0,1-1.064,1.064h0a1.065,1.065,0,0,1-1.064-1.064v-72.078A1.064,1.064,0,0,1,4292.849,6584.825Z" fill="#b6b6b6"/>
      <path id="Rectángulo_406" data-name="Rectángulo 406" d="M4315.459,6584.825h0a1.063,1.063,0,0,1,1.064,1.064v72.078a1.064,1.064,0,0,1-1.064,1.064h0a1.065,1.065,0,0,1-1.064-1.064v-72.078A1.064,1.064,0,0,1,4315.459,6584.825Z" fill="#b6b6b6"/>
      <rect id="Rectángulo_407" data-name="Rectángulo 407" width="2.128" height="1.064" transform="translate(4349.181 6579.026)" fill="#b6b6b6"/>
      <path id="Rectángulo_408" data-name="Rectángulo 408" d="M4350.244,6584.825h0a1.063,1.063,0,0,1,1.064,1.064v72.078a1.064,1.064,0,0,1-1.064,1.064h0a1.065,1.065,0,0,1-1.064-1.064v-72.078A1.064,1.064,0,0,1,4350.244,6584.825Z" fill="#b6b6b6"/>
      <path id="Rectángulo_409" data-name="Rectángulo 409" d="M4385.9,6584.825h0a1.064,1.064,0,0,1,1.064,1.064v72.078a1.065,1.065,0,0,1-1.064,1.064h0a1.064,1.064,0,0,1-1.064-1.064v-72.078A1.063,1.063,0,0,1,4385.9,6584.825Z" fill="#b6b6b6"/>
      <path id="Rectángulo_410" data-name="Rectángulo 410" d="M4551.836,6399.418h0a1.064,1.064,0,0,1,1.064,1.064v51.1a1.064,1.064,0,0,1-1.064,1.064h0a1.064,1.064,0,0,1-1.064-1.064v-51.1A1.065,1.065,0,0,1,4551.836,6399.418Z" fill="#b6b6b6"/>
      <path id="Rectángulo_411" data-name="Rectángulo 411" d="M4551.836,6499.506h0a1.064,1.064,0,0,1,1.064,1.064v35.165a1.063,1.063,0,0,1-1.064,1.064h0a1.064,1.064,0,0,1-1.064-1.064V6500.57A1.064,1.064,0,0,1,4551.836,6499.506Z" fill="#b6b6b6"/>
      <path id="Rectángulo_412" data-name="Rectángulo 412" d="M4551.836,6584.825h0a1.063,1.063,0,0,1,1.064,1.064V6654.2a1.063,1.063,0,0,1-1.064,1.064h0a1.064,1.064,0,0,1-1.064-1.064v-68.307A1.064,1.064,0,0,1,4551.836,6584.825Z" fill="#b6b6b6"/>
      <path id="Rectángulo_413" data-name="Rectángulo 413" d="M4551.836,6544.726h0a1.064,1.064,0,0,1,1.064,1.064V6574a1.064,1.064,0,0,1-1.064,1.064h0a1.064,1.064,0,0,1-1.064-1.064V6545.79A1.064,1.064,0,0,1,4551.836,6544.726Z" fill="#b6b6b6"/>
      <path id="Rectángulo_414" data-name="Rectángulo 414" d="M4551.836,6455.541h0a1.064,1.064,0,0,1,1.064,1.064v33.911a1.064,1.064,0,0,1-1.064,1.064h0a1.065,1.065,0,0,1-1.064-1.064V6456.6A1.064,1.064,0,0,1,4551.836,6455.541Z" fill="#b6b6b6"/>
      <path id="Rectángulo_415" data-name="Rectángulo 415" d="M4560.3,6399.418h0a1.065,1.065,0,0,1,1.064,1.064v51.1a1.064,1.064,0,0,1-1.064,1.064h0a1.064,1.064,0,0,1-1.064-1.064v-51.1A1.064,1.064,0,0,1,4560.3,6399.418Z" fill="#b6b6b6"/>
      <path id="Rectángulo_416" data-name="Rectángulo 416" d="M4560.3,6584.825h0a1.064,1.064,0,0,1,1.064,1.064V6654.2a1.064,1.064,0,0,1-1.064,1.064h0a1.063,1.063,0,0,1-1.064-1.064v-68.307A1.063,1.063,0,0,1,4560.3,6584.825Z" fill="#b6b6b6"/>
      <path id="Rectángulo_417" data-name="Rectángulo 417" d="M4560.3,6499.506h0a1.064,1.064,0,0,1,1.064,1.064v35.165a1.064,1.064,0,0,1-1.064,1.064h0a1.063,1.063,0,0,1-1.064-1.064V6500.57A1.064,1.064,0,0,1,4560.3,6499.506Z" fill="#b6b6b6"/>
      <path id="Rectángulo_418" data-name="Rectángulo 418" d="M4560.3,6455.541h0a1.064,1.064,0,0,1,1.064,1.064v33.911a1.065,1.065,0,0,1-1.064,1.064h0a1.064,1.064,0,0,1-1.064-1.064V6456.6A1.064,1.064,0,0,1,4560.3,6455.541Z" fill="#b6b6b6"/>
      <path id="Rectángulo_419" data-name="Rectángulo 419" d="M4560.3,6544.726h0a1.064,1.064,0,0,1,1.064,1.064V6574a1.064,1.064,0,0,1-1.064,1.064h0a1.064,1.064,0,0,1-1.064-1.064V6545.79A1.064,1.064,0,0,1,4560.3,6544.726Z" fill="#b6b6b6"/>
      <path id="Rectángulo_420" data-name="Rectángulo 420" d="M4800.707,6499.506h0a1.064,1.064,0,0,1,1.064,1.064v35.165a1.063,1.063,0,0,1-1.064,1.064h0a1.063,1.063,0,0,1-1.064-1.064V6500.57A1.064,1.064,0,0,1,4800.707,6499.506Z" fill="#b6b6b6"/>
      <path id="Rectángulo_421" data-name="Rectángulo 421" d="M4800.707,6455.541h0a1.064,1.064,0,0,1,1.064,1.064v33.911a1.064,1.064,0,0,1-1.064,1.064h0a1.064,1.064,0,0,1-1.064-1.064V6456.6A1.064,1.064,0,0,1,4800.707,6455.541Z" fill="#b6b6b6"/>
      <path id="Rectángulo_422" data-name="Rectángulo 422" d="M4800.707,6341.91h0a1.064,1.064,0,0,1,1.064,1.064v16.617a1.064,1.064,0,0,1-1.064,1.064h0a1.064,1.064,0,0,1-1.064-1.064v-16.617A1.064,1.064,0,0,1,4800.707,6341.91Z" fill="#b6b6b6"/>
      <path id="Rectángulo_423" data-name="Rectángulo 423" d="M4800.707,6544.726h0a1.064,1.064,0,0,1,1.064,1.064V6574a1.064,1.064,0,0,1-1.064,1.064h0a1.064,1.064,0,0,1-1.064-1.064V6545.79A1.064,1.064,0,0,1,4800.707,6544.726Z" fill="#b6b6b6"/>
      <path id="Rectángulo_424" data-name="Rectángulo 424" d="M4846.368,6341.91h0a1.064,1.064,0,0,1,1.064,1.064v16.617a1.064,1.064,0,0,1-1.064,1.064h0a1.064,1.064,0,0,1-1.064-1.064v-16.617A1.064,1.064,0,0,1,4846.368,6341.91Z" fill="#b6b6b6"/>
      <path id="Rectángulo_425" data-name="Rectángulo 425" d="M4846.368,6358.235h0a1.064,1.064,0,0,1,1.064,1.064v31.406a1.064,1.064,0,0,1-1.064,1.064h0a1.064,1.064,0,0,1-1.064-1.064V6359.3A1.065,1.065,0,0,1,4846.368,6358.235Z" fill="#b6b6b6"/>
      <path id="Rectángulo_426" data-name="Rectángulo 426" d="M4800.707,6358.235h0a1.064,1.064,0,0,1,1.064,1.064v31.406a1.064,1.064,0,0,1-1.064,1.064h0a1.064,1.064,0,0,1-1.064-1.064V6359.3A1.064,1.064,0,0,1,4800.707,6358.235Z" fill="#b6b6b6"/>
      <rect id="Rectángulo_427" data-name="Rectángulo 427" width="2.128" height="1.064" transform="translate(4784.855 6579.026)" fill="#b6b6b6"/>
      <path id="Rectángulo_428" data-name="Rectángulo 428" d="M4785.92,6584.825h0a1.064,1.064,0,0,1,1.064,1.064v72.078a1.065,1.065,0,0,1-1.064,1.064h0a1.064,1.064,0,0,1-1.064-1.064v-72.078A1.063,1.063,0,0,1,4785.92,6584.825Z" fill="#b6b6b6"/>
      <path id="Rectángulo_429" data-name="Rectángulo 429" d="M4840.709,6584.825h0a1.063,1.063,0,0,1,1.064,1.064v70.338a1.064,1.064,0,0,1-1.064,1.064h0a1.064,1.064,0,0,1-1.064-1.064v-70.338A1.063,1.063,0,0,1,4840.709,6584.825Z" fill="#b6b6b6"/>
      <path id="Rectángulo_430" data-name="Rectángulo 430" d="M4840.709,6577.962h0a1.064,1.064,0,0,1,1.064,1.064h0a1.064,1.064,0,0,1-1.064,1.064h0a1.064,1.064,0,0,1-1.064-1.064h0A1.064,1.064,0,0,1,4840.709,6577.962Z" fill="#b6b6b6"/>
      <path id="Rectángulo_431" data-name="Rectángulo 431" d="M4840.709,6499.506h0a1.064,1.064,0,0,1,1.064,1.064v35.165a1.063,1.063,0,0,1-1.064,1.064h0a1.063,1.063,0,0,1-1.064-1.064V6500.57A1.064,1.064,0,0,1,4840.709,6499.506Z" fill="#b6b6b6"/>
      <path id="Rectángulo_432" data-name="Rectángulo 432" d="M4840.709,6544.726h0a1.064,1.064,0,0,1,1.064,1.064V6574a1.064,1.064,0,0,1-1.064,1.064h0a1.064,1.064,0,0,1-1.064-1.064V6545.79A1.064,1.064,0,0,1,4840.709,6544.726Z" fill="#b6b6b6"/>
      <path id="Rectángulo_433" data-name="Rectángulo 433" d="M4840.709,6455.541h0a1.064,1.064,0,0,1,1.064,1.064v33.911a1.064,1.064,0,0,1-1.064,1.064h0a1.064,1.064,0,0,1-1.064-1.064V6456.6A1.064,1.064,0,0,1,4840.709,6455.541Z" fill="#b6b6b6"/>
      <path id="Rectángulo_434" data-name="Rectángulo 434" d="M4884.187,6584.825h0a1.063,1.063,0,0,1,1.064,1.064v72.078a1.064,1.064,0,0,1-1.064,1.064h0a1.064,1.064,0,0,1-1.064-1.064v-72.078A1.063,1.063,0,0,1,4884.187,6584.825Z" fill="#b6b6b6"/>
      <rect id="Rectángulo_435" data-name="Rectángulo 435" width="2.128" height="1.064" transform="translate(4883.123 6579.026)" fill="#b6b6b6"/>
    </g>
    <path id="Trazado_1151" data-name="Trazado 1151" d="M4368.6,6717.553a.608.608,0,0,0,.3.807.617.617,0,0,0,.31.054l7.537-.689,7.537-.687a.609.609,0,0,0,.441-.957l-4.362-6.183-4.363-6.183a.607.607,0,0,0-1.049.094l-1.352,2.929a.609.609,0,0,1-.808.3l-16.65-7.69a.61.61,0,0,0-.808.3l-2.8,6.065a.609.609,0,0,0,.3.807l16.651,7.689a.607.607,0,0,1,.3.806h0Z" fill="#b6b6b6"/>
    <path id="Trazado_1152" data-name="Trazado 1152" d="M4725.9,6879.726a.609.609,0,0,0,.607.861l7.537-.689,7.537-.687a.607.607,0,0,0,.441-.957l-4.362-6.183-4.362-6.183a.607.607,0,0,0-.847-.148.6.6,0,0,0-.2.243l-1.353,2.929a.608.608,0,0,1-.806.3l-16.652-7.688a.607.607,0,0,0-.807.295h0l-2.8,6.065a.609.609,0,0,0,.3.808l16.65,7.688a.609.609,0,0,1,.3.807Z" fill="#b6b6b6"/>
    <path id="Trazado_1153" data-name="Trazado 1153" d="M4471.122,6218.184a.608.608,0,0,0,1.037.18l4.843-5.816,4.844-5.816a.607.607,0,0,0-.364-.988l-7.459-1.287-7.457-1.286a.609.609,0,0,0-.675.81l1.115,3.027a.608.608,0,0,1-.359.781h0l-17.212,6.337a.608.608,0,0,0-.36.781h0l2.31,6.278a.608.608,0,0,0,.78.36l17.211-6.337a.607.607,0,0,1,.78.359h0Z" fill="#b6b6b6"/>
    <path id="Trazado_1154" data-name="Trazado 1154" d="M4973.42,6182.961a.608.608,0,0,0-.295-.807.615.615,0,0,0-.311-.054l-7.538.689-7.536.687a.608.608,0,0,0-.552.659.627.627,0,0,0,.11.3l4.363,6.183,4.362,6.183a.608.608,0,0,0,1.049-.095l1.353-2.929a.606.606,0,0,1,.805-.3h0l16.652,7.69a.61.61,0,0,0,.807-.3l2.8-6.07a.608.608,0,0,0-.3-.806l-16.651-7.69a.61.61,0,0,1-.3-.806Z" fill="#b6b6b6"/>
    <path id="Trazado_1155" data-name="Trazado 1155" d="M4640.175,6237.558a.607.607,0,0,0,.3.807.6.6,0,0,0,.311.054l7.537-.687,7.538-.689a.608.608,0,0,0,.55-.661.593.593,0,0,0-.109-.3l-4.362-6.183-4.362-6.183a.608.608,0,0,0-1.05.095l-1.356,2.93a.608.608,0,0,1-.806.3h0l-16.651-7.688a.605.605,0,0,0-.805.292l0,0-2.8,6.065a.608.608,0,0,0,.295.807h0l16.651,7.688a.61.61,0,0,1,.3.808Z" fill="#b6b6b6"/>
    <path id="Trazado_1156" data-name="Trazado 1156" d="M4927.668,6701.617a.609.609,0,0,0-.606-.861l-7.537.689-7.538.687a.606.606,0,0,0-.55.66.6.6,0,0,0,.11.3l4.362,6.183,4.362,6.183a.61.61,0,0,0,1.05-.1l1.352-2.93a.608.608,0,0,1,.806-.3l16.652,7.69a.607.607,0,0,0,.806-.3h0l2.8-6.065a.608.608,0,0,0-.3-.807l-16.651-7.689a.607.607,0,0,1-.3-.806Z" fill="#b6b6b6"/>
    <path id="Trazado_1157" data-name="Trazado 1157" d="M4411.3,6769.652a.609.609,0,0,0-.527.913l3.784,6.554,3.784,6.555a.61.61,0,0,0,.832.222.621.621,0,0,0,.222-.222l3.783-6.555,3.785-6.554a.609.609,0,0,0-.527-.913h-3.226a.607.607,0,0,1-.608-.607V6750.7a.608.608,0,0,0-.608-.607h-6.686a.607.607,0,0,0-.608.607v18.341a.608.608,0,0,1-.608.607Z" fill="#b6b6b6"/>
    <path id="Trazado_1158" data-name="Trazado 1158" d="M4264.081,6710.564a.608.608,0,0,0,.607.608.6.6,0,0,0,.305-.082l6.554-3.783,6.554-3.785a.608.608,0,0,0,.222-.832.621.621,0,0,0-.222-.222l-6.554-3.783-6.554-3.785a.608.608,0,0,0-.912.532v3.227a.608.608,0,0,1-.609.607h-18.34a.608.608,0,0,0-.608.609v6.685a.607.607,0,0,0,.608.607h18.34a.609.609,0,0,1,.609.609Z" fill="#b6b6b6"/>
    <path id="Trazado_1159" data-name="Trazado 1159" d="M4462.569,6764.421a.608.608,0,0,0,.526-.912l-3.784-6.556-3.784-6.554a.608.608,0,0,0-1.053,0l-3.784,6.554-3.784,6.556a.608.608,0,0,0,.527.912h3.226a.607.607,0,0,1,.607.607v18.341a.609.609,0,0,0,.608.607h6.686a.607.607,0,0,0,.609-.606h0v-18.341a.607.607,0,0,1,.607-.607Z" fill="#b6b6b6"/>
    <path id="Trazado_1160" data-name="Trazado 1160" d="M4443.1,6498.6a.608.608,0,0,0,.527-.911l-3.784-6.555-3.785-6.554a.606.606,0,0,0-1.052,0l-3.784,6.554-3.784,6.555a.607.607,0,0,0,.222.83.614.614,0,0,0,.3.081h3.227a.609.609,0,0,1,.607.609v18.34a.608.608,0,0,0,.609.608h6.685a.607.607,0,0,0,.607-.607h0V6499.2a.61.61,0,0,1,.609-.609Z" fill="#b6b6b6"/>
    <path id="Trazado_1161" data-name="Trazado 1161" d="M4443.1,6348.88a.609.609,0,0,0,.527-.912l-3.784-6.555-3.785-6.554a.607.607,0,0,0-.829-.222.6.6,0,0,0-.223.222l-3.784,6.554-3.784,6.555a.607.607,0,0,0,.222.83.6.6,0,0,0,.3.082h3.227a.607.607,0,0,1,.607.608v18.34a.608.608,0,0,0,.609.608h6.685a.607.607,0,0,0,.607-.607h0v-18.34a.609.609,0,0,1,.609-.608Z" fill="#b6b6b6"/>
    <path id="Trazado_1162" data-name="Trazado 1162" d="M4670.874,6371.053a.608.608,0,0,0-.527.912l3.784,6.554,3.785,6.555a.61.61,0,0,0,1.053,0l3.784-6.555,3.784-6.554a.607.607,0,0,0-.526-.912h-3.228a.609.609,0,0,1-.607-.608V6352.1a.609.609,0,0,0-.609-.608h-6.685a.607.607,0,0,0-.607.608v18.341a.61.61,0,0,1-.609.608Z" fill="#b6b6b6"/>
    <path id="Trazado_1163" data-name="Trazado 1163" d="M4670.874,6797.039a.608.608,0,0,0-.527.911l3.784,6.555,3.785,6.554a.609.609,0,0,0,1.053,0l3.784-6.554,3.784-6.555a.606.606,0,0,0-.526-.911h-3.228a.609.609,0,0,1-.607-.609v-18.34a.608.608,0,0,0-.609-.608h-6.685a.609.609,0,0,0-.607.608v18.34a.61.61,0,0,1-.609.609Z" fill="#b6b6b6"/>
    <path id="Trazado_1164" data-name="Trazado 1164" d="M4844.388,6890.285a.608.608,0,0,0,.912.532l6.554-3.784,6.555-3.785a.609.609,0,0,0,.222-.83.624.624,0,0,0-.222-.222l-6.555-3.785-6.554-3.783a.606.606,0,0,0-.83.221.6.6,0,0,0-.082.3v3.228a.608.608,0,0,1-.608.607h-18.341a.608.608,0,0,0-.608.608v6.686a.607.607,0,0,0,.607.607h18.342a.608.608,0,0,1,.608.608Z" fill="#b6b6b6"/>
    <path id="Trazado_1165" data-name="Trazado 1165" d="M4980.458,6365.82a.607.607,0,0,0,.609-.606.6.6,0,0,0-.082-.3l-3.785-6.555-3.783-6.554a.609.609,0,0,0-1.054,0l-3.783,6.554-3.785,6.555a.607.607,0,0,0,.527.911h3.226a.611.611,0,0,1,.609.609v18.34a.608.608,0,0,0,.607.608h6.685a.608.608,0,0,0,.609-.608v-18.34a.609.609,0,0,1,.607-.609Z" fill="#b6b6b6"/>
    <path id="Trazado_1166" data-name="Trazado 1166" d="M4980.458,6617.426a.609.609,0,0,0,.609-.607.6.6,0,0,0-.082-.3l-3.785-6.555-3.783-6.554a.609.609,0,0,0-.832-.222.624.624,0,0,0-.222.222l-3.783,6.554-3.785,6.555a.608.608,0,0,0,.527.912h3.226a.61.61,0,0,1,.609.608v18.341a.607.607,0,0,0,.607.607h6.685a.608.608,0,0,0,.609-.607v-18.341a.608.608,0,0,1,.607-.608Z" fill="#b6b6b6"/>
    <path id="Trazado_1167" data-name="Trazado 1167" d="M4173.644,6414.221a.606.606,0,0,0-.526.911l3.784,6.555,3.784,6.554a.608.608,0,0,0,.83.223.616.616,0,0,0,.223-.223l3.784-6.554,3.784-6.555a.608.608,0,0,0-.222-.83.617.617,0,0,0-.305-.081h-3.226a.609.609,0,0,1-.607-.608h0v-18.331a.609.609,0,0,0-.609-.608h-6.685a.608.608,0,0,0-.609.608v18.34a.608.608,0,0,1-.607.609h0Z" fill="#b6b6b6"/>
    <path id="Trazado_1168" data-name="Trazado 1168" d="M4246.918,6181.076a.608.608,0,0,0-.913-.532l-6.554,3.785-6.554,3.783a.608.608,0,0,0,0,1.054l6.554,3.785,6.554,3.784a.609.609,0,0,0,.913-.527v-3.227a.607.607,0,0,1,.606-.608h18.342a.608.608,0,0,0,.608-.608v-6.686a.609.609,0,0,0-.608-.608h-18.34a.607.607,0,0,1-.607-.607Z" fill="#b6b6b6"/>
    <path id="Trazado_1169" data-name="Trazado 1169" d="M4591.314,6181.076a.608.608,0,0,0-.913-.532l-6.554,3.785-6.554,3.783a.608.608,0,0,0,0,1.054l6.554,3.785,6.554,3.784a.609.609,0,0,0,.913-.527v-3.227a.609.609,0,0,1,.607-.608h18.341a.608.608,0,0,0,.608-.608v-6.686a.609.609,0,0,0-.608-.608h-18.341a.607.607,0,0,1-.607-.607Z" fill="#b6b6b6"/>
    <path id="Trazado_1170" data-name="Trazado 1170" d="M4789.2,6181.076a.607.607,0,0,0-.912-.532l-6.554,3.785-6.554,3.783a.608.608,0,0,0,0,1.054l6.554,3.785,6.554,3.784a.608.608,0,0,0,.912-.527v-3.227a.608.608,0,0,1,.609-.608h18.336a.608.608,0,0,0,.609-.608v-6.686a.608.608,0,0,0-.609-.608h-18.34a.609.609,0,0,1-.608-.607Z" fill="#b6b6b6"/>
  </g>
</svg>
