<svg xmlns="http://www.w3.org/2000/svg" width="62.882" height="32.917" viewBox="0 0 62.882 32.917">
  <g id="Grupo_2" data-name="Grupo 2" transform="translate(-702.5 -36.083)">
    <path id="Trazado_1317" data-name="Trazado 1317" d="M2.956,23.874a21.385,21.385,0,0,1-1.775,1.508,3.559,3.559,0,0,1-1.14.3c.01-.469-.136-1.026.067-1.384a2.985,2.985,0,0,1,1.25-1.158A2.386,2.386,0,0,0,2.95,20.675c-.072-3.1-.027-6.2-.022-9.293A10.447,10.447,0,0,1,10.043,1.163a17.907,17.907,0,0,1,13.334.252C27.648,3.232,29.8,6.664,29.894,11.3c.068,3.231.013,6.465.012,9.7a2.028,2.028,0,0,0,1.371,2.034A2.494,2.494,0,0,1,32.9,24.778a2.844,2.844,0,0,1-.141.953,2.209,2.209,0,0,1-.8-.171c-.677-.468-1.311-1-2.058-1.576v.939q0,14.041.005,28.082a8.555,8.555,0,0,1-2.782,6.742,11.7,11.7,0,0,1-5.855,2.678,25.618,25.618,0,0,1-10.815-.254,10.556,10.556,0,0,1-5.189-2.825,8.406,8.406,0,0,1-2.338-6.119q0-12.118.027-24.236C2.958,27.319,2.956,25.645,2.956,23.874ZM25.848,26.9c.524-2.7,1.01-5.34,1.565-7.965a1.549,1.549,0,0,0-.406-1.521,8,8,0,0,0-3.787-2.074,22.071,22.071,0,0,0-10.1-.807,17.929,17.929,0,0,0-5.945,1.823c-1.632.906-1.942,1.54-1.614,3.246.464,2.413.932,4.824,1.408,7.288a26.573,26.573,0,0,1,9.385-1.3A26.482,26.482,0,0,1,25.848,26.9ZM16.437,47.37v0c-2.176,0-4.353-.012-6.53.005a2.243,2.243,0,0,0-2.361,1.431c-.382,1.072-.691,2.171-1.007,3.266a1.859,1.859,0,0,0,.324,1.71,9.271,9.271,0,0,0,4.025,3.154,14.414,14.414,0,0,0,10,.388,9.459,9.459,0,0,0,5.15-3.683,1.7,1.7,0,0,0,.262-1.517c-.273-.945-.519-1.9-.848-2.827-.536-1.51-1.146-1.918-2.761-1.926C20.607,47.362,18.522,47.37,16.437,47.37Zm-11.95-24.6v.265c0,6.731-.015,13.463.018,20.194a6.235,6.235,0,0,0,.47,2.05c.119.325.5.552.769.824a3.455,3.455,0,0,0,.472-1.055c.117-1.563.243-3.134.212-4.7-.065-3.3-.262-6.59-.337-9.885C6.03,27.813,5.108,25.344,4.487,22.774Zm23.837.025L28.2,22.77c-.078.319-.16.636-.233.955a29.539,29.539,0,0,0-1.08,4.906c-.264,4.991-.338,9.992-.446,14.989a8.255,8.255,0,0,0,.314,2.053c.128.535.539.622.782.15a5.089,5.089,0,0,0,.749-2.1c.059-5.877.034-11.754.033-17.631Zm-.345,34.026c-.082-.65-.49-.469-.789-.316a5.211,5.211,0,0,0-2.369,2.29,1.948,1.948,0,0,0-.067.683,1.967,1.967,0,0,0,.692-.047,5.5,5.5,0,0,0,2.336-2.144A3.014,3.014,0,0,0,27.979,56.825ZM8.4,3.774c-.029-.542-.319-.5-.648-.347a5.46,5.46,0,0,0-2.438,2.4,1.847,1.847,0,0,0-.072.69,1.93,1.93,0,0,0,.747-.042,5.433,5.433,0,0,0,2.271-2.3A2.243,2.243,0,0,0,8.4,3.774ZM27.648,6.381c-.038-.944-1.982-2.976-2.806-3.024a.555.555,0,0,0-.408.361c-.065.784,1.993,2.9,2.814,2.907C27.4,6.624,27.556,6.44,27.648,6.381Zm-22.383,50c-.569.062-.458.412-.323.691a5.1,5.1,0,0,0,2.465,2.381,1.754,1.754,0,0,0,.68.021,2.331,2.331,0,0,0-.1-.69,5.4,5.4,0,0,0-2.256-2.238A2.259,2.259,0,0,0,5.264,56.378Z" transform="translate(765.382 36.083) rotate(90)" fill="red"/>
  </g>
</svg>
